<?xml version="1.0" standalone="no"?>
<!DOCTYPE svg PUBLIC "-//W3C//DTD SVG 20010904//EN"
 "http://www.w3.org/TR/2001/REC-SVG-20010904/DTD/svg10.dtd">
<svg version="1.0" xmlns="http://www.w3.org/2000/svg"
 width="354.000000pt" height="354.000000pt" viewBox="0 0 354.000000 354.000000"
 preserveAspectRatio="xMidYMid meet">
<metadata>
Created by potrace 1.11, written by Peter Selinger 2001-2013
</metadata>
<g transform="translate(0.000000,354.000000) scale(0.100000,-0.100000)"
fill="#000000" stroke="none">
<path d="M289 2090 c-117 -40 -176 -137 -166 -275 10 -151 104 -279 239 -324
58 -20 84 -20 739 -21 374 0 679 2 679 4 0 3 -6 11 -12 18 -7 7 -32 38 -56 69
l-42 56 -543 0 c-483 1 -546 2 -582 17 -52 22 -83 52 -106 101 -36 78 -14 161
52 200 33 19 53 20 572 21 296 1 540 4 543 7 2 2 -13 35 -34 73 l-40 69 -598
0 c-516 0 -605 -2 -645 -15z"/>
<path d="M1631 2095 c0 -5 17 -39 38 -75 l37 -65 574 -1 c706 0 623 22 763
-204 42 -68 75 -125 72 -128 -2 -2 -238 -4 -525 -4 -378 0 -524 3 -534 11 -23
20 -25 49 -4 68 18 16 51 18 464 18 244 0 443 2 442 6 -2 3 -21 36 -43 72
l-40 67 -480 -1 c-341 0 -489 -4 -512 -12 -129 -48 -167 -222 -69 -319 62 -61
17 -58 893 -56 l800 3 -153 230 c-83 127 -174 253 -202 281 -53 55 -130 97
-202 110 -69 12 -1320 12 -1319 -1z"/>
</g>
</svg>
