<svg xmlns="http://www.w3.org/2000/svg" viewBox="0 0 493.46 27.82">
  <title>Asset 2</title>
  <g id="Layer_2" data-name="Layer 2">
    <g id="Layer_1-2" data-name="Layer 1">
      <g>
        <path d="M17.34,22.68a7.11,7.11,0,0,1-6.81-6,5.24,5.24,0,0,1,1.19-4.27,5.16,5.16,0,0,1,4-1.75H52.59L49.78,5.55H9.11a9,9,0,0,0-6.94,3A9.21,9.21,0,0,0,.1,16l.18,1.26a12.54,12.54,0,0,0,12,10.53H58.55a50.19,50.19,0,0,1-3.93-5.14Z" fill="#fff"/>
        <path d="M97,5.55H53.1l2.8,5.14H94.6a7.18,7.18,0,0,1,6.14,3.42l5.32,8.62H69.37a1.77,1.77,0,1,1,0-3.53h30.76l-3.19-5.09H64.83A7,7,0,0,0,57.73,21a7,7,0,0,0,7.1,6.85h54.59l-10.6-15.93A14.17,14.17,0,0,0,97,5.55Z" fill="#fff"/>
        <path d="M358.48,5.55H314.59l2.8,5.14h38.7a7.18,7.18,0,0,1,6.14,3.42l5.32,8.62h-36.7a1.77,1.77,0,0,1,0-3.53h30.77l-3.19-5.09H326.32a7,7,0,0,0-7.1,6.86,7,7,0,0,0,7.1,6.85h54.59l-10.6-15.93A14.17,14.17,0,0,0,358.48,5.55Z" fill="#fff"/>
        <path d="M124.78,10.64H160.3L157,5.55H117.75a4.69,4.69,0,0,0-3.9,7.29l10,15H133l-9.34-15.11a1.34,1.34,0,0,1,0-1.38A1.36,1.36,0,0,1,124.78,10.64Z" fill="#fff"/>
        <path d="M262.93,10.64h37.95l-3.3-5.09H255.91A4.69,4.69,0,0,0,252,12.84l10,15h10.35L261.79,12.71a1.35,1.35,0,0,1,1.14-2.07Z" fill="#fff"/>
        <path d="M199,26.52l-3.54-3.79H184.61a5.63,5.63,0,0,1-4.6-2.38l-6.91-9.71h21.7L192,5.55H169.58l0-.06L165.75,0h-8.58l7,10.5,0,.07,7.21,10.84a14.36,14.36,0,0,0,12,6.41h16.79l-.09-.1A9.14,9.14,0,0,1,199,26.52Z" fill="#fff"/>
        <polygon points="245.68 10.69 242.26 5.55 194.75 5.55 197.56 10.69 245.68 10.69" fill="#fff"/>
        <path d="M211,22.73a1.77,1.77,0,0,1,0-3.53h40.32L248,14.11H206.49A7,7,0,0,0,199.38,21a7,7,0,0,0,7.11,6.85h50.58l-3.39-5.09Z" fill="#fff"/>
        <polygon points="482.07 10.69 478.65 5.55 432.35 5.55 435.16 10.69 482.07 10.69" fill="#fff"/>
        <path d="M490.07,22.73H448.62a1.77,1.77,0,0,1,0-3.53h39.11l-3.38-5.09H444.09A7,7,0,0,0,437,21a7,7,0,0,0,7.11,6.85h49.37Z" fill="#fff"/>
        <path d="M395.05,22.68a7.12,7.12,0,0,1-6.82-6,5.31,5.31,0,0,1,1.19-4.27,5.16,5.16,0,0,1,4-1.75h38.11L428.7,5.55H386.82a9,9,0,0,0-6.94,3A9.21,9.21,0,0,0,377.81,16l.18,1.26a12.53,12.53,0,0,0,12,10.53h46.55l-3-5.14Z" fill="#fff"/>
      </g>
    </g>
  </g>
</svg>
